  <svg
                  width="80"
                  height="80"
                  viewBox="0 0 200 200"
                  fill="none"
                  xmlns="http://www.w3.org/2000/svg"
                >
                  <path
                    d="M73.3613 19.8385C84.3297 13.3665 97.5498 11.9588 109.607 15.9788V15.9788C113.503 17.2781 117.568 18.0237 121.674 18.1933V18.1933C134.36 18.7175 146.258 24.7712 154.193 34.6693V34.6693C156.766 37.8788 159.798 40.7393 163.155 43.1158V43.1158C173.543 50.4697 180.292 62.0252 181.651 74.6969V74.6969C182.092 78.806 183.107 82.8674 184.653 86.6967V86.6967C189.434 98.5342 188.924 111.911 183.241 123.37V123.37C181.405 127.071 180.084 131.043 179.33 135.103V135.103C177.005 147.615 169.384 158.648 158.466 165.195V165.195C154.935 167.313 151.699 169.929 148.885 172.937V172.937C140.195 182.228 127.883 187.353 115.191 186.919V186.919C111.081 186.779 106.969 187.216 102.978 188.22V188.22C90.6522 191.318 77.5572 188.898 67.1509 181.641V181.641C63.7814 179.291 60.0793 177.414 56.1904 176.086V176.086C44.1677 171.982 34.4485 162.796 29.6073 151.046V151.046C28.0367 147.234 25.929 143.627 23.3742 140.394V140.394C15.4634 130.382 12.2199 117.405 14.4667 104.82V104.82C15.1936 100.748 15.3527 96.5617 14.9406 92.4495V92.4495C13.67 79.7684 17.9002 67.0437 26.5519 57.6624V57.6624C29.3479 54.6306 31.7262 51.194 33.5844 47.5126V47.5126C39.3148 36.1593 49.7105 27.7316 62.0118 24.5467V24.5467C65.994 23.5156 69.8163 21.9303 73.3613 19.8385V19.8385Z"
                    fill="black"
                  />
                  <ellipse
                    cx="99.8354"
                    cy="101.766"
                    rx="8.43237"
                    ry="8.86528"
                    fill="#D7DADB"
                  />
                  <rect
                    width="34.4442"
                    height="52.4865"
                    rx="17.2221"
                    transform="matrix(0.702469 0.711715 -0.702469 0.711715 141.309 32.9185)"
                    fill="#D7DADB"
                  />
                  <path
                    d="M95.0161 54.1335C100.274 62.0315 98.1862 72.7739 90.3525 78.1273V78.1273C82.5188 83.4808 71.9059 81.418 66.6478 73.52L56.5314 58.3244C51.2733 50.4264 53.3613 39.684 61.195 34.3305V34.3305C69.0286 28.9771 79.6416 31.0399 84.8997 38.9379L95.0161 54.1335Z"
                    fill="#D7DADB"
                  />
                  <rect
                    width="34.66"
                    height="52.1556"
                    rx="17.33"
                    transform="matrix(-0.137399 -0.990516 0.990014 -0.140969 28.9607 131.382)"
                    fill="#D7DADB"
                  />
                  <path
                    d="M129.32 135.122C120.758 130.892 117.176 120.487 121.318 111.882V111.882C125.46 103.277 135.759 99.7315 144.32 103.962L160.181 111.8C168.743 116.031 172.325 126.436 168.183 135.04V135.04C164.041 143.645 153.743 147.191 145.181 142.96L129.32 135.122Z"
                    fill="#D7DADB"
                  />
                  <path
                    d="M109.214 148.26L107.295 166.758C106.348 175.884 98.1853 182.494 89.0625 181.522C79.9397 180.551 73.3117 172.366 74.2583 163.24L76.1773 144.742C77.124 135.617 85.2869 129.007 94.4096 129.978C103.532 130.949 110.16 139.135 109.214 148.26Z"
                    fill="#D7DADB"
                    stroke="#D7DADB"
                  />
                </svg>